<svg id="calendar-Bold" xmlns="http://www.w3.org/2000/svg" width="20" height="20" viewBox="0 0 20 20">
  <rect id="Path" width="20" height="20" fill="rgba(255,255,255,0)"/>
  <path id="calendar-Bold_1_" d="M409.5,1964.833a.833.833,0,1,0-1.667,0h-5a.833.833,0,1,0-1.667,0A4.171,4.171,0,0,0,397,1969v7.5a4.171,4.171,0,0,0,4.167,4.167H409.5a4.171,4.171,0,0,0,4.167-4.167V1969A4.171,4.171,0,0,0,409.5,1964.833Zm-8.333,1.667v.833a.833.833,0,0,0,1.667,0v-.833h5v.833a.833.833,0,0,0,1.667,0v-.833a2.5,2.5,0,0,1,2.5,2.5H398.667A2.5,2.5,0,0,1,401.167,1966.5ZM409.5,1979h-8.333a2.5,2.5,0,0,1-2.5-2.5v-5.833H412v5.833A2.5,2.5,0,0,1,409.5,1979Zm0-5.833a.833.833,0,1,1-.833-.833A.834.834,0,0,1,409.5,1973.167Zm-3.333,0a.833.833,0,1,1-.833-.833A.834.834,0,0,1,406.167,1973.167Zm-3.333,0a.833.833,0,1,1-.833-.833A.834.834,0,0,1,402.833,1973.167Zm6.667,3.333a.833.833,0,1,1-.833-.833A.834.834,0,0,1,409.5,1976.5Zm-3.333,0a.833.833,0,1,1-.833-.833A.834.834,0,0,1,406.167,1976.5Zm-3.333,0a.833.833,0,1,1-.833-.833A.834.834,0,0,1,402.833,1976.5Z" transform="translate(-395.333 -1962.333)" fill="#282f39"/>
</svg>
