<svg id="clock-Bold" xmlns="http://www.w3.org/2000/svg" width="20" height="20" viewBox="0 0 20 20">
  <rect id="Path" width="20" height="20" fill="rgba(255,255,255,0)"/>
  <path id="clock-Bold_1_" d="M309.333,1964a8.333,8.333,0,1,0,8.333,8.333A8.343,8.343,0,0,0,309.333,1964Zm0,15a6.667,6.667,0,1,1,6.667-6.667A6.674,6.674,0,0,1,309.333,1979Zm4.167-6.667a.833.833,0,0,1-.833.833h-3.333a.833.833,0,0,1-.833-.833v-4.167a.833.833,0,1,1,1.667,0v3.333h2.5A.833.833,0,0,1,313.5,1972.333Z" transform="translate(-299.333 -1962.333)" fill="#282f39"/>
</svg>
