<svg xmlns="http://www.w3.org/2000/svg" width="32.424" height="22.697" viewBox="0 0 32.424 22.697">
  <path id="Icon_awesome-vote-yea" data-name="Icon awesome-vote-yea" d="M30.8,16.841H27.56v3.242h1.135a.452.452,0,0,1,.486.405V21.3a.452.452,0,0,1-.486.405H3.729a.452.452,0,0,1-.486-.405v-.811a.452.452,0,0,1,.486-.405H4.864V16.841H1.621A1.619,1.619,0,0,0,0,18.462v4.864a1.619,1.619,0,0,0,1.621,1.621H30.8a1.619,1.619,0,0,0,1.621-1.621V18.462A1.619,1.619,0,0,0,30.8,16.841Zm-4.864,3.242V3.886A1.636,1.636,0,0,0,24.3,2.25H8.126A1.64,1.64,0,0,0,6.485,3.886v16.2ZM10.7,10.863l1.292-1.282a.54.54,0,0,1,.77.005l2.092,2.108,4.823-4.782a.54.54,0,0,1,.77.005l1.282,1.292a.54.54,0,0,1-.005.77l-6.5,6.444a.54.54,0,0,1-.77-.005L10.7,11.633A.54.54,0,0,1,10.7,10.863Z" transform="translate(0 -2.25)" fill="#282f39"/>
</svg>
