<svg xmlns="http://www.w3.org/2000/svg" width="26" height="29.714" viewBox="0 0 26 29.714">
  <path id="Icon_awesome-calendar-plus" data-name="Icon awesome-calendar-plus" d="M25.3,9.286H.7a.7.7,0,0,1-.7-.7V6.5A2.786,2.786,0,0,1,2.786,3.714H5.571V.7a.7.7,0,0,1,.7-.7H8.589a.7.7,0,0,1,.7.7V3.714h7.429V.7a.7.7,0,0,1,.7-.7h2.321a.7.7,0,0,1,.7.7V3.714h2.786A2.786,2.786,0,0,1,26,6.5V8.589A.7.7,0,0,1,25.3,9.286ZM.7,11.143H25.3a.7.7,0,0,1,.7.7V26.929a2.786,2.786,0,0,1-2.786,2.786H2.786A2.786,2.786,0,0,1,0,26.929V11.839A.7.7,0,0,1,.7,11.143Zm18.339,8.125a.7.7,0,0,0-.7-.7H14.857V15.089a.7.7,0,0,0-.7-.7H11.839a.7.7,0,0,0-.7.7v3.482H7.661a.7.7,0,0,0-.7.7v2.321a.7.7,0,0,0,.7.7h3.482v3.482a.7.7,0,0,0,.7.7h2.321a.7.7,0,0,0,.7-.7V22.286h3.482a.7.7,0,0,0,.7-.7Z" fill="#282f39"/>
</svg>
