<svg id="link-Bold" xmlns="http://www.w3.org/2000/svg" width="20" height="20" viewBox="0 0 20 20">
  <rect id="Path" width="20" height="20" fill="rgba(255,255,255,0)"/>
  <path id="link-Bold_1_" d="M748.455,2043.056l-1.532,1.533a.833.833,0,0,1-1.178-1.178l1.532-1.533a2.471,2.471,0,0,0,0-3.488,2.522,2.522,0,0,0-3.487,0l-2.8,2.8a1.741,1.741,0,0,0-.223.263,2.453,2.453,0,0,0,.223,3.225.834.834,0,0,1-1.179,1.178,4.1,4.1,0,0,1-.415-5.35,3.216,3.216,0,0,1,.414-.495l2.8-2.8a4.133,4.133,0,1,1,5.843,5.846Zm-6.777-.245a.833.833,0,0,0,0,1.178,2.44,2.44,0,0,1,.573,2.582,2.353,2.353,0,0,1-.573.907l-2.8,2.8a2.523,2.523,0,0,1-3.487,0,2.471,2.471,0,0,1,0-3.488l1.532-1.533a.833.833,0,1,0-1.178-1.178l-1.533,1.533a4.133,4.133,0,1,0,5.844,5.845l2.8-2.8a4,4,0,0,0,.969-1.541,4.135,4.135,0,0,0-.97-4.3A.833.833,0,0,0,741.679,2042.811Z" transform="translate(-731.334 -2034.333)" fill="#282f39"/>
</svg>
