<svg xmlns="http://www.w3.org/2000/svg" width="20" height="20" viewBox="0 0 20 20">
  <g id="그룹_94883" data-name="그룹 94883" transform="translate(14030 -21747)">
    <g id="user-Bold" transform="translate(-14030 21747)">
      <rect id="Path" width="20" height="20" fill="rgba(255,255,255,0)"/>
      <g id="그룹_94229" data-name="그룹 94229" transform="translate(2 2)">
        <path id="user-Bold_1_" d="M693.328,1972.586a4.293,4.293,0,1,0-4.35-4.293A4.327,4.327,0,0,0,693.328,1972.586Zm0-7.025a2.732,2.732,0,1,1-2.768,2.732A2.753,2.753,0,0,1,693.328,1965.561Zm2.519,8.66a5.253,5.253,0,0,1-5.031,0,.616.616,0,0,0-.45-.059,2.353,2.353,0,0,0-1.784,2.3v.789a1.569,1.569,0,0,0,.407,1.057.774.774,0,0,1-.062,1.1.8.8,0,0,1-1.117-.061,3.116,3.116,0,0,1-.811-2.1v-.789a3.918,3.918,0,0,1,2.98-3.811,2.221,2.221,0,0,1,1.613.214,3.648,3.648,0,0,0,3.479,0C696.426,1972.543,696.44,1973.935,695.847,1974.221Z" transform="translate(-687 -1964)" fill="#282f39"/>
      </g>
    </g>
    <g id="user-Bold-2" data-name="user-Bold" transform="translate(-14018 21757)">
      <g id="그룹_94229-2" data-name="그룹 94229" transform="translate(-10 -8)">
        <g id="Icon_check_outline" transform="translate(10 8)">
          <g id="Icon_check_outline-2" data-name="Icon_check_outline" transform="translate(30 15)">
            <path id="Path-2" data-name="Path" d="M7.707.293a1,1,0,0,1,0,1.414l-4,4a1,1,0,0,1-1.414,0l-2-2A1,1,0,0,1,1.707,2.293L3,3.586,6.293.293A1,1,0,0,1,7.707.293Z" transform="translate(-30 -15)"/>
          </g>
        </g>
      </g>
    </g>
  </g>
</svg>
