<svg xmlns="http://www.w3.org/2000/svg" width="16" height="16" viewBox="0 0 16 16">
    <path style="fill:transparent" d="M0 0h16v16H0z"/>
    <path d="m553.943 1966.667-2.276-2.276a1.324 1.324 0 0 0-.943-.391H547a2.669 2.669 0 0 0-2.667 2.667h-.667a2.669 2.669 0 0 0-2.667 2.667v5.333a2.669 2.669 0 0 0 2.667 2.667h4.667a2.669 2.669 0 0 0 2.667-2.667h.667a2.669 2.669 0 0 0 2.667-2.667v-4.391a1.341 1.341 0 0 0-.391-.942zm-2.943-1.058 1.724 1.724h-.881a.844.844 0 0 1-.843-.844zM548.333 1976h-4.667a1.335 1.335 0 0 1-1.333-1.333v-5.333a1.335 1.335 0 0 1 1.333-1.333h.667v4a2.669 2.669 0 0 0 2.667 2.667h2.667a1.335 1.335 0 0 1-1.334 1.332zm3.333-2.667H547a1.335 1.335 0 0 1-1.333-1.333v-5.333a1.335 1.335 0 0 1 1.333-1.333h2.667v1.156a2.179 2.179 0 0 0 2.177 2.177H553V1972a1.335 1.335 0 0 1-1.333 1.333z" transform="translate(-539.667 -1962.667)" style="fill:#9f9f9f"/>
</svg>
