<svg xmlns="http://www.w3.org/2000/svg" width="16" height="16" viewBox="0 0 16 16">
  <g id="그룹_94327" data-name="그룹 94327" transform="translate(-298 -243)">
    <path id="패스_32033" data-name="패스 32033" d="M11.629,2.876,4.118,4.5,2.98,5.83l.155,1.753L6.874,8.767l1.3,3.259.912,1.054,1.539-.112.713-1.735,1.9-7.742-.983-.613Z" transform="translate(298.02 243.125)" fill="#c2c2c2"/>
    <rect id="Path" width="16" height="16" transform="translate(298 243)" fill="rgba(255,255,255,0)"/>
    <path id="send-Bold_1_" d="M600.462,2036.537a1.816,1.816,0,0,0-1.74-.482l-7.867,1.967a2.447,2.447,0,0,0,.033,4.757l2.7.635.635,2.7a2.411,2.411,0,0,0,2.366,1.888h.019a2.412,2.412,0,0,0,2.374-1.854h0l1.967-7.867A1.817,1.817,0,0,0,600.462,2036.537Zm-.682,1.45-1.967,7.867a1.187,1.187,0,0,1-1.22.945,1.2,1.2,0,0,1-1.206-.962l-.643-2.733,2.48-2.48a.6.6,0,1,0-.848-.848l-2.48,2.48-2.733-.643a1.248,1.248,0,0,1-.017-2.426l7.867-1.967a.679.679,0,0,1,.16-.02.63.63,0,0,1,.44.187A.623.623,0,0,1,599.78,2037.987Z" transform="translate(-288.875 -1790.896)" fill="rgba(40,47,57,0.5)"/>
  </g>
</svg>
