<svg xmlns="http://www.w3.org/2000/svg" width="32" height="32" viewBox="0 0 32 32">
    <path style="fill:transparent" d="M0 0h32v32H0z"/>
    <path d="m229.562 1910.024-1.475-2.46a5.328 5.328 0 0 1-.759-2.741v-3.5a9.327 9.327 0 0 0-18.653 0v3.5a5.333 5.333 0 0 1-.759 2.74l-1.475 2.461a3.066 3.066 0 0 0 2.631 4.643H214a4 4 0 0 0 8 0h4.929a3.066 3.066 0 0 0 2.632-4.643zM218 1916a1.335 1.335 0 0 1-1.333-1.333h2.667A1.335 1.335 0 0 1 218 1916zm9.279-4.2a.387.387 0 0 1-.349.2h-17.859a.4.4 0 0 1-.344-.6l1.475-2.463a8.006 8.006 0 0 0 1.139-4.111v-3.5a6.66 6.66 0 0 1 13.32 0v3.5a8 8 0 0 0 1.139 4.112l1.476 2.461a.389.389 0 0 1 .003.401z" transform="translate(-202 -1889.333)" style="fill:#282f39"/>
</svg>
