<svg xmlns="http://www.w3.org/2000/svg" width="16" height="16" viewBox="0 0 16 16">
    <path style="fill:transparent" d="M0 0h16v16H0z"/>
    <circle data-name="타원 65567" cx="5" cy="5" r="5" transform="translate(3 3)" style="fill:#f7d64e"/>
    <path d="M307 1964a6 6 0 1 0 6 6 6.007 6.007 0 0 0-6-6zm0 10.8a4.8 4.8 0 1 1 4.8-4.8 4.806 4.806 0 0 1-4.8 4.8zm3-4.8a.6.6 0 0 1-.6.6H307a.6.6 0 0 1-.6-.6v-3a.6.6 0 0 1 1.2 0v2.4h1.8a.6.6 0 0 1 .6.6z" transform="translate(-299 -1962)" style="fill:#282f39"/>
</svg>
