<svg xmlns="http://www.w3.org/2000/svg" width="16" height="16" viewBox="0 0 16 16">
    <path style="fill:transparent" d="M0 0h16v16H0z"/>
    <path d="M793.439 1820.895a3.051 3.051 0 0 0-4.317 0l-7.022 7.022a1.986 1.986 0 0 0-.559 1.085l-.527 3.159a1.006 1.006 0 0 0 .993 1.172.981.981 0 0 0 .165-.014l3.159-.526a1.986 1.986 0 0 0 1.085-.559l7.022-7.022a3.051 3.051 0 0 0 0-4.317zm-7.965 10.4a.663.663 0 0 1-.361.186l-2.708.451.451-2.708a.66.66 0 0 1 .186-.361l5.271-5.271 2.432 2.432zm7.022-7.022-.809.809-2.432-2.432.809-.809a1.72 1.72 0 1 1 2.432 2.432z" transform="translate(-779.667 -1818.667)" style="fill:#9f9f9f"/>
</svg>
