<svg xmlns="http://www.w3.org/2000/svg" width="16" height="16" viewBox="0 0 16 16">
    <path style="fill:transparent" d="M0 0h16v16H0z"/>
    <rect data-name="사각형 30861" width="11.266" height="10.326" rx="3" transform="translate(2.518 3.157)" style="fill:#f7d64e"/>
    <path d="M406.164 1964.611a.611.611 0 1 0-1.222 0h-3.666a.611.611 0 0 0-1.222 0 3.058 3.058 0 0 0-3.055 3.055v5.5a3.058 3.058 0 0 0 3.055 3.055h6.11a3.058 3.058 0 0 0 3.055-3.055v-5.5a3.058 3.058 0 0 0-3.055-3.055zm-6.11 1.222v.611a.611.611 0 0 0 1.222 0v-.611h3.666v.611a.611.611 0 0 0 1.222 0v-.611a1.835 1.835 0 0 1 1.833 1.833h-9.775a1.835 1.835 0 0 1 1.833-1.833zm6.11 9.164h-6.11a1.835 1.835 0 0 1-1.833-1.833v-4.277H408v4.277a1.835 1.835 0 0 1-1.836 1.836zm0-4.277a.611.611 0 1 1-.611-.611.611.611 0 0 1 .611.611zm-2.444 0a.611.611 0 1 1-.611-.611.611.611 0 0 1 .611.611zm-2.444 0a.611.611 0 1 1-.611-.611.611.611 0 0 1 .612.611zm4.888 2.444a.611.611 0 1 1-.611-.611.611.611 0 0 1 .611.611zm-2.444 0a.611.611 0 1 1-.611-.611.611.611 0 0 1 .611.611zm-2.444 0a.611.611 0 1 1-.611-.611.611.611 0 0 1 .612.611z" transform="translate(-395.109 -1962.109)" style="fill:#282f39"/>
</svg>
