<svg xmlns="http://www.w3.org/2000/svg" width="28" height="28" viewBox="0 0 28 28">
    <path d="M0 0h28v28H0z" style="fill:transparent"/>
    <path d="M414.458 1229.417h-.292v-.292a.875.875 0 0 0-1.75 0v.292h-7.583v-.292a.875.875 0 0 0-1.75 0v.292h-.292a5.548 5.548 0 0 0-5.542 5.542v10.5a5.548 5.548 0 0 0 5.542 5.542h11.667a5.548 5.548 0 0 0 5.542-5.542v-10.5a5.548 5.548 0 0 0-5.542-5.542zm-11.667 1.75h.292v1.458a.875.875 0 0 0 1.75 0v-1.458h7.583v1.458a.875.875 0 0 0 1.75 0v-1.458h.292a3.8 3.8 0 0 1 3.792 3.792v.292H399v-.292a3.8 3.8 0 0 1 3.792-3.792zm11.667 18.083h-11.666a3.8 3.8 0 0 1-3.792-3.792V1237h19.25v8.458a3.8 3.8 0 0 1-3.792 3.792z" transform="translate(-394.625 -1225.625)" style="fill:#282f39"/>
    <text transform="translate(14 12)" style="font-size:8px;font-family:Pretendard-Bold,Pretendard;font-weight:700;fill:#282f39"><tspan x="-6.912" y="8">오늘</tspan></text>
</svg>
