<svg id="clock-Bold" xmlns="http://www.w3.org/2000/svg" width="17" height="17" viewBox="0 0 17 17">
  <rect id="Path" width="17" height="17" fill="rgba(255,255,255,0)"/>
  <path id="clock-Bold_1_" d="M308.024,1964a7.024,7.024,0,1,0,7.024,7.024A7.032,7.032,0,0,0,308.024,1964Zm0,12.643a5.619,5.619,0,1,1,5.619-5.619A5.626,5.626,0,0,1,308.024,1976.643Zm3.512-5.619a.7.7,0,0,1-.7.7h-2.81a.7.7,0,0,1-.7-.7v-3.512a.7.7,0,1,1,1.4,0v2.809h2.107A.7.7,0,0,1,311.536,1971.024Z" transform="translate(-299.595 -1962.595)" fill="#fdba41"/>
</svg>
