<svg id="trash-Bold" xmlns="http://www.w3.org/2000/svg" width="20" height="20" viewBox="0 0 20 20">
  <rect id="Path" width="20" height="20" fill="rgba(255,255,255,0)"/>
  <path id="trash-Bold_1_" d="M652.833,1822.5h-2.966a.833.833,0,0,1-.791-.569l-.263-.792a1.666,1.666,0,0,0-1.581-1.139h-3.8a1.664,1.664,0,0,0-1.581,1.14l-.263.79a.833.833,0,0,1-.791.57h-2.965a.833.833,0,1,0,0,1.667h.888l.626,9.388a3.341,3.341,0,0,0,3.326,3.112H648a3.342,3.342,0,0,0,3.326-3.112l.626-9.388h.887a.833.833,0,1,0,0-1.667Zm-9.4-.833h3.8l.263.792c0,.015.013.027.018.042h-4.362c.005-.015.013-.028.018-.043Zm6.223,11.778a1.671,1.671,0,0,1-1.663,1.556h-5.323a1.671,1.671,0,0,1-1.663-1.556l-.618-9.278h.408a2.53,2.53,0,0,0,.264-.021.739.739,0,0,0,.1.021H649.5a.889.889,0,0,0,.1-.021,2.511,2.511,0,0,0,.264.021h.408Zm-1.824-5.944v4.167a.833.833,0,1,1-1.667,0V1827.5a.833.833,0,1,1,1.667,0Zm-3.333,0v4.167a.833.833,0,1,1-1.667,0V1827.5a.833.833,0,1,1,1.667,0Z" transform="translate(-635.333 -1818.333)" fill="#282f39"/>
</svg>
