<svg xmlns="http://www.w3.org/2000/svg" width="16" height="16" viewBox="0 0 16 16">
    <path style="fill:transparent" d="M0 0h16v16H0z"/>
    <circle data-name="타원 65568" cx="5.333" cy="5.333" transform="translate(2.667 2.667)" style="fill:#f7d64e" r="5.333"/>
    <path d="M259 1820a6 6 0 1 0 6 6 6.007 6.007 0 0 0-6-6zm0 10.8a4.8 4.8 0 1 1 4.8-4.8 4.806 4.806 0 0 1-4.8 4.8zm2.363-6.43a2.331 2.331 0 0 1-1.138 2.419c-.555.369-.643.566-.655.6a.6.6 0 0 1-.569.409.593.593 0 0 1-.192-.032.6.6 0 0 1-.377-.76 2.725 2.725 0 0 1 1.128-1.219 1.121 1.121 0 0 0 .621-1.213 1.215 1.215 0 0 0-.958-.958 1.2 1.2 0 0 0-1.423 1.18.6.6 0 1 1-1.2 0 2.4 2.4 0 0 1 2.83-2.362 2.419 2.419 0 0 1 1.933 1.936zM259.6 1829a.6.6 0 1 1-.6-.6.6.6 0 0 1 .6.6z" transform="translate(-251 -1818)" style="fill:#282f39"/>
</svg>
