<svg id="user-Bold" xmlns="http://www.w3.org/2000/svg" width="20" height="20" viewBox="0 0 20 20">
  <rect id="Path" width="20" height="20" fill="rgba(255,255,255,0)"/>
  <g id="그룹_94229" data-name="그룹 94229" transform="translate(2 2)">
    <path id="user-Bold_1_" d="M693.476,1972.8a4.4,4.4,0,1,0-4.452-4.4A4.432,4.432,0,0,0,693.476,1972.8Zm0-7.2a2.8,2.8,0,1,1-2.833,2.8A2.82,2.82,0,0,1,693.476,1965.6Zm2.578,8.876a5.369,5.369,0,0,1-5.149,0,.63.63,0,0,0-.461-.061,2.412,2.412,0,0,0-1.826,2.354v.809a1.61,1.61,0,0,0,.417,1.084.794.794,0,0,1-.063,1.13.816.816,0,0,1-1.143-.062,3.2,3.2,0,0,1-.83-2.151v-.809a4.015,4.015,0,0,1,3.049-3.906,2.268,2.268,0,0,1,1.651.219,3.729,3.729,0,0,0,3.56,0C696.648,1972.756,696.661,1974.183,696.055,1974.476Z" transform="translate(-687 -1964)" fill="#282f39"/>
    <path id="times-square-Bold_1_" d="M553.239,1755.366l-1.856,1.834,1.856,1.834a.792.792,0,0,1,0,1.131.816.816,0,0,1-1.145,0l-1.856-1.834-1.856,1.834a.816.816,0,0,1-1.145,0,.792.792,0,0,1,0-1.131l1.856-1.834-1.856-1.834a.793.793,0,0,1,0-1.131.816.816,0,0,1,1.145,0l1.856,1.834,1.856-1.834a.816.816,0,0,1,1.145,0A.793.793,0,0,1,553.239,1755.366Z" transform="translate(-536.476 -1746)" fill="#282f39"/>
  </g>
</svg>