<svg xmlns="http://www.w3.org/2000/svg" width="16" height="16" viewBox="0 0 16 16">
  <g id="그룹_94328" data-name="그룹 94328" transform="translate(-20 -704)">
    <g id="그룹_115" data-name="그룹 115" transform="translate(-331.555 485.433)">
      <g id="그룹_114" data-name="그룹 114" transform="translate(355 221)">
        <path id="패스_110" data-name="패스 110" d="M360.567,221h-4.048A1.491,1.491,0,0,0,355,222.518v8.1a1.491,1.491,0,0,0,1.518,1.518h6.073a1.491,1.491,0,0,0,1.518-1.518v-6.073Z" transform="translate(-355 -221)" fill="#c2c2c2" stroke="rgba(40,47,57,0.5)" stroke-linecap="round" stroke-linejoin="round" stroke-miterlimit="10" stroke-width="1.2"/>
        <path id="패스_111" data-name="패스 111" d="M366,223.036a1.5,1.5,0,0,0,1.527,1.527h2.036L366,221Z" transform="translate(-360.454 -221)" fill="none" stroke="rgba(40,47,57,0.5)" stroke-linecap="round" stroke-linejoin="round" stroke-miterlimit="10" stroke-width="1.2"/>
      </g>
      <line id="선_71" data-name="선 71" x2="3.644" transform="translate(357.706 226.861)" fill="none" stroke="rgba(40,47,57,0.5)" stroke-linecap="round" stroke-linejoin="round" stroke-miterlimit="10" stroke-width="1.2"/>
      <line id="선_72" data-name="선 72" x2="3.644" transform="translate(357.706 229.578)" fill="none" stroke="rgba(40,47,57,0.5)" stroke-linecap="round" stroke-linejoin="round" stroke-miterlimit="10" stroke-width="1.2"/>
    </g>
    <rect id="사각형_30871" data-name="사각형 30871" width="16" height="16" transform="translate(20 704)" fill="none"/>
  </g>
</svg>
