<svg xmlns="http://www.w3.org/2000/svg" width="16" height="16" viewBox="0 0 16 16">
    <path data-name="패스 32033" d="M11.629 2.876 4.118 4.5 2.98 5.83l.155 1.753 3.739 1.184 1.3 3.259.912 1.054 1.539-.112.713-1.735 1.9-7.742-.983-.613z" style="fill:#f6d54d"/>
    <path style="fill:transparent" d="M0 0h16v16H0z"/>
    <path d="M600.462 2036.537a1.816 1.816 0 0 0-1.74-.482l-7.867 1.967a2.447 2.447 0 0 0 .033 4.757l2.7.635.635 2.7a2.411 2.411 0 0 0 2.366 1.888h.019a2.412 2.412 0 0 0 2.374-1.854l1.967-7.867a1.817 1.817 0 0 0-.487-1.744zm-.682 1.45-1.967 7.867a1.187 1.187 0 0 1-1.22.945 1.2 1.2 0 0 1-1.206-.962l-.643-2.733 2.48-2.48a.6.6 0 1 0-.848-.848l-2.48 2.48-2.733-.643a1.248 1.248 0 0 1-.017-2.426l7.867-1.967a.679.679 0 0 1 .16-.02.63.63 0 0 1 .44.187.623.623 0 0 1 .167.6z" transform="translate(-587 -2034)" style="fill:#282f39"/>
</svg>
