<svg xmlns="http://www.w3.org/2000/svg" width="16" height="16" viewBox="0 0 16 16">
    <path style="fill:transparent" d="M0 0h16v16H0z"/>
    <path data-name="패스 32031" d="M4.143 2.779 2.176 4.406v5.268l1.311 1.779h8.423l2.09 2.09-.315-8.729-2.018-2.035z" transform="translate(-.025 -.128)" style="fill:#f7d64e"/>
    <path d="M448.224 2037h6.449a3.228 3.228 0 0 1 3.224 3.225v8.385a.646.646 0 0 1-.4.6.639.639 0 0 1-.247.049.645.645 0 0 1-.456-.189l-1.557-1.557a.643.643 0 0 0-.457-.189h-6.559A3.228 3.228 0 0 1 445 2044.1v-3.87a3.228 3.228 0 0 1 3.224-3.23zm-1.935 7.1a1.937 1.937 0 0 0 1.935 1.935h6.559a1.923 1.923 0 0 1 1.368.567l.456.456v-6.828a1.937 1.937 0 0 0-1.935-1.935h-6.449a1.937 1.937 0 0 0-1.935 1.935zm6.932-1.935a.806.806 0 1 0 .806-.806.807.807 0 0 0-.805.801zm-2.579 0a.806.806 0 1 0 .806-.806.807.807 0 0 0-.805.801zm-2.58 0a.806.806 0 1 0 .806-.806.807.807 0 0 0-.805.801z" transform="translate(-443.449 -2035.128)" style="fill:#282f39"/>
</svg>
