<svg id="users-Bold" xmlns="http://www.w3.org/2000/svg" width="16" height="16" viewBox="0 0 16 16">
  <rect id="Path" width="16" height="16" fill="rgba(255,255,255,0)"/>
  <path id="users-Bold_1_" d="M743,1974.76v.338a2.5,2.5,0,0,1-.649,1.684.667.667,0,0,1-.987-.9,1.17,1.17,0,0,0,.3-.789v-.338a1.791,1.791,0,0,0-1.357-1.745.432.432,0,0,0-.318.039,4.151,4.151,0,0,1-3.978,0,.429.429,0,0,0-.323-.042,1.791,1.791,0,0,0-1.357,1.745v.338a1.173,1.173,0,0,0,.3.789.667.667,0,0,1-.988.9A2.5,2.5,0,0,1,733,1975.1v-.338a3.123,3.123,0,0,1,2.369-3.04,1.8,1.8,0,0,1,1.292.171,2.8,2.8,0,0,0,2.683,0,1.794,1.794,0,0,1,1.287-.167A3.122,3.122,0,0,1,743,1974.76Zm-8.333-6.426a3.333,3.333,0,1,1,3.333,3.333A3.337,3.337,0,0,1,734.667,1968.333Zm1.333,0a2,2,0,1,0,2-2A2,2,0,0,0,736,1968.333Z" transform="translate(-730 -1963)" fill="#282f39"/>
</svg>
