<svg xmlns="http://www.w3.org/2000/svg" width="20" height="20" viewBox="0 0 20 20">
  <circle id="타원_65557" data-name="타원 65557" cx="10" cy="10" r="10" fill="#fad94f">
    <svg id="users-Bold" xmlns="http://www.w3.org/2000/svg" width="11.429" height="11.429" viewBox="0 0 11.429 11.429">
    <rect id="Path" width="11.429" height="11.429" fill="rgba(255,255,255,0)"/>
    <path id="users-Bold_1_" d="M740.143,1971.971v.242a1.786,1.786,0,0,1-.464,1.2.476.476,0,0,1-.705-.64.836.836,0,0,0,.217-.563v-.241a1.279,1.279,0,0,0-.97-1.247.308.308,0,0,0-.227.028,2.965,2.965,0,0,1-2.841,0,.305.305,0,0,0-.23-.03,1.279,1.279,0,0,0-.969,1.246v.242a.837.837,0,0,0,.217.563.476.476,0,0,1-.706.64,1.788,1.788,0,0,1-.464-1.2v-.241a2.231,2.231,0,0,1,1.692-2.172,1.282,1.282,0,0,1,.923.122,2,2,0,0,0,1.917,0,1.283,1.283,0,0,1,.919-.12A2.23,2.23,0,0,1,740.143,1971.971Zm.689-2.171a.476.476,0,1,0-.229.924,1.279,1.279,0,0,1,.97,1.247v.241a.838.838,0,0,1-.217.563.476.476,0,0,0,.705.64,1.787,1.787,0,0,0,.464-1.2v-.242A2.231,2.231,0,0,0,740.832,1969.8Zm-6.641-2.418a2.381,2.381,0,1,1,2.381,2.381A2.384,2.384,0,0,1,734.191,1967.381Zm.952,0a1.429,1.429,0,1,0,1.429-1.429A1.43,1.43,0,0,0,735.143,1967.381Zm6.19,0a2.383,2.383,0,0,0-2.084-2.362.476.476,0,1,0-.118.945,1.429,1.429,0,0,1,.714,2.533.476.476,0,1,0,.6.743A2.37,2.37,0,0,0,741.334,1967.381Z" transform="translate(-732.048 -1963.572)" fill="#282f39"/>
    </svg> 
  </circle>
</svg>





