<svg xmlns="http://www.w3.org/2000/svg" width="20" height="19.998" viewBox="0 0 20 19.998">
    <path data-name="사각형 389" transform="translate(.291 .289)" style="fill:none" d="M0 0h19.709v19.709H0z"/>
    <path data-name="패스 116" d="M.357 3.75A26.748 26.748 0 0 0 0 7.679a22.289 22.289 0 0 0 .357 3.75 4.492 4.492 0 0 0 1.25 2.143 3.457 3.457 0 0 0 2.321 1.071A43.784 43.784 0 0 0 8.75 15l4.286 4.107a.656.656 0 0 0 .536.179h.357c.357-.179.357-.357.357-.714V15l1.786-.179a4.976 4.976 0 0 0 2.321-1.25 4.153 4.153 0 0 0 1.429-2.143A27.649 27.649 0 0 0 20 7.5a27.649 27.649 0 0 0-.179-3.929 3.3 3.3 0 0 0-1.429-2.143A3.457 3.457 0 0 0 16.071.357C13.929.179 11.964 0 10 0S6.071.179 3.929.357a3.986 3.986 0 0 0-2.322 1.072A3.373 3.373 0 0 0 .357 3.75z" style="fill:#fdba41"/>
    <circle data-name="타원 65543" cx="1" cy="1" r="1" transform="translate(13.856 6.663)" style="fill:#fff"/>
    <circle data-name="타원 65544" cx="1" cy="1" r="1" transform="translate(8.818 6.663)" style="fill:#fff"/>
    <circle data-name="타원 65545" cx="1" cy="1" r="1" transform="translate(3.779 6.663)" style="fill:#fff"/>
</svg>
