<svg id="link-Bold" xmlns="http://www.w3.org/2000/svg" width="40" height="40" viewBox="0 0 40 40">
  <rect id="Path" width="40" height="40" fill="rgba(255,255,255,0)"/>
  <path id="link-Bold_1_" d="M763.9,2050.113l-3.065,3.067a1.667,1.667,0,0,1-2.357-2.357l3.065-3.066a4.941,4.941,0,0,0,0-6.976,5.045,5.045,0,0,0-6.973,0l-5.6,5.6a3.446,3.446,0,0,0-.445.527,4.9,4.9,0,0,0,.447,6.449,1.667,1.667,0,0,1-2.358,2.357,8.192,8.192,0,0,1-.83-10.7,6.4,6.4,0,0,1,.828-.99l5.6-5.6a8.266,8.266,0,1,1,11.687,11.692Zm-13.553-.49a1.665,1.665,0,0,0,0,2.357,4.88,4.88,0,0,1,1.147,5.164,4.707,4.707,0,0,1-1.147,1.815l-5.6,5.6a5.046,5.046,0,0,1-6.974,0,4.942,4.942,0,0,1,0-6.977l3.065-3.066a1.667,1.667,0,0,0-2.357-2.357l-3.065,3.068a8.265,8.265,0,1,0,11.688,11.69l5.6-5.6a8.009,8.009,0,0,0,1.938-3.082,8.27,8.27,0,0,0-1.94-8.61A1.665,1.665,0,0,0,750.351,2049.622Z" transform="translate(-729.663 -2032.667)" fill="#282f39"/>
</svg>
