<svg xmlns="http://www.w3.org/2000/svg" width="89" height="17" viewBox="0 0 89 17">
  <g id="그룹_90747" data-name="그룹 90747" transform="translate(-234.721 -396.126)">
    <path id="패스_30816" data-name="패스 30816" d="M247.665,413.769h-3.92l-5.01-6.546a5.172,5.172,0,0,1-.416-.726h-.054v7.273h-3.044V398.922h3.044v7.02h.054a6.186,6.186,0,0,1,.427-.746l4.786-6.274H247.2l-5.854,7.091Z" transform="translate(0 -1.418)" fill="#282f39" stroke="rgba(0,0,0,0)" stroke-miterlimit="10" stroke-width="1"/>
    <path id="패스_30817" data-name="패스 30817" d="M279.306,416.529h-7.5q.181,2.836,3.247,2.836a5.883,5.883,0,0,0,3.333-.973v2.243a7.952,7.952,0,0,1-4.006.9,5.414,5.414,0,0,1-4.075-1.5,5.778,5.778,0,0,1-1.458-4.2,6.006,6.006,0,0,1,1.565-4.3,5.163,5.163,0,0,1,3.915-1.656,4.732,4.732,0,0,1,3.664,1.428,5.579,5.579,0,0,1,1.314,3.925Zm-2.809-1.936q0-2.645-2.2-2.645a2.193,2.193,0,0,0-1.618.719,3.348,3.348,0,0,0-.87,1.925Z" transform="translate(-19.861 -8.907)" fill="#282f39" stroke="rgba(0,0,0,0)" stroke-miterlimit="10" stroke-width="1"/>
    <path id="패스_30818" data-name="패스 30818" d="M300.771,411.76a1.435,1.435,0,0,1,.545-1.158,1.938,1.938,0,0,1,1.271-.449,1.856,1.856,0,0,1,1.261.455,1.462,1.462,0,0,1,.524,1.153,1.48,1.48,0,0,1-.524,1.18,1.926,1.926,0,0,1-1.3.45,1.835,1.835,0,0,1-1.245-.46A1.482,1.482,0,0,1,300.771,411.76Zm0,8.315a1.454,1.454,0,0,1,.54-1.163,1.915,1.915,0,0,1,1.276-.455,1.855,1.855,0,0,1,1.261.455,1.56,1.56,0,0,1,0,2.332,1.926,1.926,0,0,1-1.3.45,1.811,1.811,0,0,1-1.255-.465A1.488,1.488,0,0,1,300.771,420.075Z" transform="translate(-38.868 -9.078)" fill="#282f39" stroke="rgba(0,0,0,0)" stroke-miterlimit="10" stroke-width="1"/>
    <path id="패스_30819" data-name="패스 30819" d="M326.51,400.374l-8.278,11.014h8.225v2.381H314.066v-1.5l8.375-10.954H314.7v-2.39H326.51Z" transform="translate(-46.508 -1.418)" fill="#282f39" stroke="rgba(0,0,0,0)" stroke-miterlimit="10" stroke-width="1"/>
    <path id="패스_30820" data-name="패스 30820" d="M361.924,421.685h-2.97v-1.714H358.9a3.856,3.856,0,0,1-3.439,1.989q-3.941,0-3.942-4.7v-6.7h2.98v6.39q0,2.7,2.115,2.7a2.15,2.15,0,0,0,1.688-.735,2.865,2.865,0,0,0,.651-1.973v-6.379h2.97Z" transform="translate(-68.692 -9.334)" fill="#282f39" stroke="rgba(0,0,0,0)" stroke-miterlimit="10" stroke-width="1"/>
    <path id="패스_30821" data-name="패스 30821" d="M386.712,412.351V396.626h2.97v15.725Z" transform="translate(-89.857 0)" fill="#282f39" stroke="rgba(0,0,0,0)" stroke-miterlimit="10" stroke-width="1"/>
    <path id="패스_30822" data-name="패스 30822" d="M411.19,416.529h-7.5q.181,2.836,3.247,2.836a5.883,5.883,0,0,0,3.333-.973v2.243a7.951,7.951,0,0,1-4.006.9,5.415,5.415,0,0,1-4.075-1.5,5.778,5.778,0,0,1-1.458-4.2,6.008,6.008,0,0,1,1.565-4.3,5.163,5.163,0,0,1,3.915-1.656,4.731,4.731,0,0,1,3.664,1.428,5.577,5.577,0,0,1,1.314,3.925Zm-2.81-1.936q0-2.645-2.2-2.645a2.194,2.194,0,0,0-1.619.719,3.348,3.348,0,0,0-.87,1.925Z" transform="translate(-97.112 -8.907)" fill="#282f39" stroke="rgba(0,0,0,0)" stroke-miterlimit="10" stroke-width="1"/>
    <path id="패스_30823" data-name="패스 30823" d="M440.859,412.978a2.776,2.776,0,0,0-1.442-.349,2.126,2.126,0,0,0-1.795.9,3.979,3.979,0,0,0-.673,2.428v5.416h-2.98V410.259h2.98V412.4h.032a3.006,3.006,0,0,1,2.959-2.327,2.213,2.213,0,0,1,.919.148Z" transform="translate(-117.638 -9.027)" fill="#282f39" stroke="rgba(0,0,0,0)" stroke-miterlimit="10" stroke-width="1"/>
  </g>
</svg>
