<svg xmlns="http://www.w3.org/2000/svg" width="150" height="49" viewBox="0 0 150 49">
  <g id="그룹_94804" data-name="그룹 94804" transform="translate(-44.463 -73.873)">
    <path id="패스_32043" data-name="패스 32043" d="M76.841,122.711H71.508V97.374H62.78l-3.61,21.448H53.783L57.07,98.562H44.732V93.7H57.878l2.155-13.129a1.321,1.321,0,0,0-.108-1,1.341,1.341,0,0,0-.97-.243H44.463V74.467h19.5a2.288,2.288,0,0,1,1.886.675,2.338,2.338,0,0,1,.323,1.917L63.588,92.4h7.92V73.873h5.334Zm10.236,0H81.69V73.873h5.387Z" transform="translate(0)" fill="#282f39"/>
    <path id="패스_32044" data-name="패스 32044" d="M140.688,95.983a1.264,1.264,0,0,1-1.616,1.616h-2.694a1.264,1.264,0,0,1-1.616-1.616V93.289a1.264,1.264,0,0,1,1.616-1.616h2.694a1.264,1.264,0,0,1,1.616,1.616Zm0,21.011a1.264,1.264,0,0,1-1.616,1.616h-2.694a1.264,1.264,0,0,1-1.616-1.616V114.3a1.264,1.264,0,0,1,1.616-1.616h2.694a1.264,1.264,0,0,1,1.616,1.616Z" transform="translate(-41.682 -8.151)" fill="#282f39"/>
    <path id="패스_32045" data-name="패스 32045" d="M196.638,123.334H156.987V110.422h33.725v-3.242H156.878v-4.862h16.97V98H153.862V93.134h45.362V98H179.236v4.322H196.1v9.617a2.756,2.756,0,0,1-3.232,3.242H162.374v3.3h34.264Zm-.054-32.524H190.55l-7.434-8.969q-.432-.485-.754-.891a3.551,3.551,0,0,0-.7-.675,2.725,2.725,0,0,0-.861-.405,4.5,4.5,0,0,0-1.185-.135h-6.142a4.49,4.49,0,0,0-1.185.135,2.72,2.72,0,0,0-.863.405,3.547,3.547,0,0,0-.7.675q-.323.405-.754.891l-7.435,8.969H156.5l8.943-11.075h-8.189V74.873H195.83v4.862h-8.189Z" transform="translate(-50.513 -0.461)" fill="#282f39"/>
    <path id="패스_32046" data-name="패스 32046" d="M277.784,117.957H248.369V92.62H267.6v-13.4H248.261V74.467h24.728V93.214a3.495,3.495,0,0,1-4.041,4.052H253.756V113.2h24.028Zm10.775,4.754h-5.387V97.049h-8.027v-4.97h8.027V73.873h5.387Z" transform="translate(-94.096)" fill="#282f39"/>
  </g>
</svg>

