<svg xmlns="http://www.w3.org/2000/svg" width="242" height="79" viewBox="0 0 242 79">
  <g id="그룹_90868" data-name="그룹 90868" transform="translate(-61 -224)">
    <g id="그룹_90747" data-name="그룹 90747" transform="translate(-163.221 -137.626)">
      <path id="패스_30816" data-name="패스 30816" d="M267.759,439.908h-10.25l-13.1-18.072a14.473,14.473,0,0,1-1.089-2h-.14v20.076h-7.96V398.922h7.96V418.3h.14a17.351,17.351,0,0,1,1.117-2.061l12.513-17.319h9.579l-15.3,19.573Z" fill="#282f39"/>
      <path id="패스_30817" data-name="패스 30817" d="M296.192,427.274H276.585q.474,7.415,8.491,7.414a15.383,15.383,0,0,0,8.714-2.545v5.864a20.791,20.791,0,0,1-10.474,2.35q-6.843,0-10.655-3.927t-3.813-10.982A15.7,15.7,0,0,1,272.94,414.2a13.5,13.5,0,0,1,10.236-4.329q6.144,0,9.581,3.734t3.435,10.263Zm-7.345-5.062q0-6.915-5.755-6.915a5.735,5.735,0,0,0-4.231,1.881,8.753,8.753,0,0,0-2.276,5.034Z" transform="translate(0.575 0.269)" fill="#282f39"/>
      <path id="패스_30818" data-name="패스 30818" d="M300.771,414.356a3.752,3.752,0,0,1,1.425-3.029,5.067,5.067,0,0,1,3.323-1.175,4.852,4.852,0,0,1,3.3,1.19,3.823,3.823,0,0,1,1.37,3.014,3.87,3.87,0,0,1-1.37,3.084,5.036,5.036,0,0,1-3.407,1.176,4.8,4.8,0,0,1-3.254-1.2A3.875,3.875,0,0,1,300.771,414.356Zm0,21.742a3.8,3.8,0,0,1,1.412-3.042,5.008,5.008,0,0,1,3.336-1.19,4.852,4.852,0,0,1,3.3,1.19,4.078,4.078,0,0,1,0,6.1,5.036,5.036,0,0,1-3.407,1.176,4.734,4.734,0,0,1-3.282-1.217A3.89,3.89,0,0,1,300.771,436.1Z" transform="translate(1.024 0.269)" fill="#282f39"/>
      <path id="패스_30819" data-name="패스 30819" d="M346.6,402.93l-21.645,30.406h21.506v6.572h-32.4V435.76l21.9-30.24H315.715v-6.6H346.6Z" transform="translate(1.386)" fill="#282f39"/>
      <path id="패스_30820" data-name="패스 30820" d="M378.724,439.639h-7.765v-4.482h-.14a10.081,10.081,0,0,1-8.993,5.2q-10.3,0-10.306-12.281v-17.51h7.792v16.708q0,7.055,5.531,7.054a5.621,5.621,0,0,0,4.413-1.923,7.493,7.493,0,0,0,1.7-5.159v-16.68h7.765Z" transform="translate(1.987 0.269)" fill="#282f39"/>
      <path id="패스_30821" data-name="패스 30821" d="M386.712,439.908V396.626h7.765v43.282Z" transform="translate(2.347)" fill="#282f39"/>
      <path id="패스_30822" data-name="패스 30822" d="M428.076,427.274H408.469q.474,7.415,8.491,7.414a15.381,15.381,0,0,0,8.714-2.545v5.864a20.789,20.789,0,0,1-10.474,2.35q-6.843,0-10.655-3.927t-3.813-10.982a15.708,15.708,0,0,1,4.092-11.244,13.5,13.5,0,0,1,10.236-4.329q6.144,0,9.581,3.734t3.435,10.263Zm-7.346-5.062q0-6.915-5.753-6.915a5.736,5.736,0,0,0-4.232,1.881,8.753,8.753,0,0,0-2.276,5.034Z" transform="translate(3.238 0.269)" fill="#282f39"/>
      <path id="패스_30823" data-name="패스 30823" d="M451.983,417.676a7.258,7.258,0,0,0-3.77-.913,5.56,5.56,0,0,0-4.693,2.365,10.4,10.4,0,0,0-1.759,6.349v14.162h-7.792V410.566h7.792v5.588h.084q2.15-6.084,7.736-6.085a5.787,5.787,0,0,1,2.4.387Z" transform="translate(3.238 0.269)" fill="#282f39"/>
    </g>
    <text id="바쁜_현대인을_위한_스마트_스케줄링_툴" data-name="바쁜 현대인을 위한 스마트 스케줄링 툴" transform="translate(182 239)" fill="#282f39" font-size="16" font-family="Pretendard-Medium, Pretendard" font-weight="500" opacity="0.7"><tspan x="-120.352" y="0">바쁜 현대인을 위한 스마트 스케줄링 툴</tspan></text>
  </g>
</svg>
