<svg xmlns="http://www.w3.org/2000/svg" width="16" height="16" viewBox="0 0 16 16">
  <g id="그룹_94231" data-name="그룹 94231" transform="translate(-300 -286)">
    <rect id="Path" width="16" height="16" transform="translate(300 286)" fill="rgba(255,255,255,0)"/>
    <path id="패스_32009" data-name="패스 32009" d="M5.494,7.864a2.32,2.32,0,0,0,2.329-2.32,2.392,2.392,0,0,0-2.329-2.4,2.32,2.32,0,0,0-2.329,2.32A2.45,2.45,0,0,0,5.494,7.864Zm-3.909-6.3A5.518,5.518,0,0,1,9.4,9.355L5.494,13.25,1.585,9.355A5.643,5.643,0,0,1,1.585,1.566Z" transform="translate(302.475 287.4)" fill="#282f39" fill-rule="evenodd"/>
  </g>
</svg>