<svg xmlns="http://www.w3.org/2000/svg" width="40" height="40" viewBox="0 0 40 40">
  <g id="그룹_94245" data-name="그룹 94245" transform="translate(0 0.001)">
    <g id="그룹_94244" data-name="그룹 94244" transform="translate(7.143 4.287)">
      <path id="타원_36" data-name="타원 36" d="M4.714-1A5.714,5.714,0,1,1-1,4.714,5.721,5.721,0,0,1,4.714-1Zm0,8.571A2.857,2.857,0,1,0,1.857,4.714,2.86,2.86,0,0,0,4.714,7.571Z" transform="translate(1 11)" fill="#282f39"/>
      <path id="타원_37" data-name="타원 37" d="M4.714-1A5.714,5.714,0,1,1-1,4.714,5.721,5.721,0,0,1,4.714-1Zm0,8.571A2.857,2.857,0,1,0,1.857,4.714,2.86,2.86,0,0,0,4.714,7.571Z" transform="translate(15.285 1)" fill="#282f39"/>
      <path id="타원_38" data-name="타원 38" d="M4.714-1A5.714,5.714,0,1,1-1,4.714,5.721,5.721,0,0,1,4.714-1Zm0,8.571A2.857,2.857,0,1,0,1.857,4.714,2.86,2.86,0,0,0,4.714,7.571Z" transform="translate(15.285 20.999)" fill="#282f39"/>
      <path id="선_117" data-name="선 117" d="M1.189,8.569-.64,6.374,7.931-.768,9.76,1.427Z" transform="translate(8.297 6.813)" fill="#282f39"/>
      <path id="선_3107" data-name="선 3107" d="M5.114,5.771-.6,1.486,1.114-.8,6.828,3.486Z" transform="translate(9.742 18.228)" fill="#282f39"/>
    </g>
    <rect id="사각형_30857" data-name="사각형 30857" width="40" height="40" transform="translate(0 -0.001)" fill="none"/>
  </g>
</svg>
